<?xml version="1.0" encoding="UTF-8"?>
<svg version="1.1" xmlns="http://www.w3.org/2000/svg" width="32" height="32" viewBox="0 0 93 50">
<path d="M0 0 C0.75925781 -0.04898438 1.51851562 -0.09796875 2.30078125 -0.1484375 C6.46269166 0.7643219 8.59543184 3.77189304 10.92553711 7.19238281 C12.15960617 9.16867285 13.3384381 11.16781249 14.5 13.1875 C15.11004883 14.22680664 15.11004883 14.22680664 15.73242188 15.28710938 C16.72427289 16.97909052 17.70685598 18.67649891 18.6875 20.375 C22.14151484 15.99561047 24.82635567 11.1681949 27.65234375 6.37109375 C29.5255335 3.61344204 30.82246831 2.01297628 33.6875 0.375 C38.7772421 -0.18024459 41.59374391 0.34705746 45.6875 3.375 C47.66040039 6.17480469 47.66040039 6.17480469 49.53515625 9.546875 C49.87373154 10.1475177 50.21230682 10.7481604 50.56114197 11.36700439 C51.6359798 13.27996989 52.69318669 15.20202935 53.75 17.125 C54.46303425 18.40168936 55.17721686 19.67773807 55.89257812 20.953125 C57.21693954 23.31747844 58.53303208 25.68574218 59.84399414 28.05761719 C60.8092219 29.79454141 61.77931163 31.52935586 62.7951355 33.23718262 C65.16399872 37.2334124 66.31245221 39.68785846 65.6875 44.375 C64.48043121 47.71765205 63.76693151 48.32204566 60.6875 50.375 C58.6015625 50.74609375 58.6015625 50.74609375 56.3125 50.8125 C55.56226562 50.85246094 54.81203125 50.89242187 54.0390625 50.93359375 C49.21850194 49.78851043 46.72653604 45.60407655 44.23046875 41.60546875 C43.43766864 40.26229501 42.65258433 38.91453932 41.875 37.5625 C41.46830078 36.86962891 41.06160156 36.17675781 40.64257812 35.46289062 C39.65072711 33.77090948 38.66814402 32.07350109 37.6875 30.375 C37.16800781 31.24382813 36.64851563 32.11265625 36.11328125 33.0078125 C26.91415155 48.26167422 26.91415155 48.26167422 22.6875 50.375 C16.8958979 50.93188482 14.1799971 50.02729726 9.6875 46.375 C7.79289577 43.75839228 6.29983873 40.98838001 4.8125 38.125 C4.4103125 37.37992188 4.008125 36.63484375 3.59375 35.8671875 C2.61177426 34.04351826 1.64777358 32.2101895 0.6875 30.375 C-3.05740415 34.80674247 -5.6438578 39.5165852 -8.3359375 44.6328125 C-10.67271679 47.8747474 -12.60720053 48.96415475 -16.3125 50.375 C-19.91004143 50.30158079 -22.00356268 49.53618469 -25.1875 47.875 C-27.70626089 44.9117519 -27.92601904 42.9390833 -27.82958984 39.10351562 C-26.72469597 33.27334852 -23.24748513 28.37182966 -20.1875 23.375 C-19.52234375 22.2509375 -18.8571875 21.126875 -18.171875 19.96875 C-6.44232993 0.28151358 -6.44232993 0.28151358 0 0 Z " fill="#19E2F1" transform="translate(27.3125,-0.375)"/>
<path d="M0 0 C0.75925781 -0.04898438 1.51851562 -0.09796875 2.30078125 -0.1484375 C7.06612789 0.89666307 9.58228217 5.07769406 12.1796875 8.93359375 C12.98169156 10.22178001 13.77589181 11.51485525 14.5625 12.8125 C14.97757813 13.45509766 15.39265625 14.09769531 15.8203125 14.75976562 C17.73240418 17.89878279 18.69065861 19.74643613 18.671875 23.484375 C17.54781347 26.78519061 16.00590644 29.29561831 14.0625 32.1875 C11.57193984 36.25051159 10.16712992 38.83335376 10.75 43.625 C11.059375 44.8625 11.36875 46.1 11.6875 47.375 C8.39915383 44.58457375 6.56014311 40.90171824 4.5 37.1875 C4.13197266 36.53330078 3.76394531 35.87910156 3.38476562 35.20507812 C2.4812534 33.59753039 1.5837759 31.98659349 0.6875 30.375 C-3.05740415 34.80674247 -5.6438578 39.5165852 -8.3359375 44.6328125 C-10.67271679 47.8747474 -12.60720053 48.96415475 -16.3125 50.375 C-19.91004143 50.30158079 -22.00356268 49.53618469 -25.1875 47.875 C-27.70626089 44.9117519 -27.92601904 42.9390833 -27.82958984 39.10351562 C-26.72469597 33.27334852 -23.24748513 28.37182966 -20.1875 23.375 C-19.52234375 22.2509375 -18.8571875 21.126875 -18.171875 19.96875 C-6.44232993 0.28151358 -6.44232993 0.28151358 0 0 Z " fill="#00B1F9" transform="translate(27.3125,-0.375)"/>
<path d="M0 0 C3 2 3 2 5 5 C5.6870757 11.57927039 4.34702402 15.27176785 0.8125 20.75 C0.42513672 21.39582031 0.03777344 22.04164062 -0.36132812 22.70703125 C-2.75962646 26.56809337 -5.12168712 29.48535197 -9 32 C-13.10887379 32.43251303 -16.64127386 32.61234256 -20 30 C-21.93801641 26.76997265 -22.40682507 23.89154478 -21.75 20.1640625 C-20.32820936 16.06160408 -17.95658445 12.45340144 -15.69140625 8.76953125 C-14.01711339 6.12352825 -14.01711339 6.12352825 -12.87890625 3.71484375 C-12 2 -12 2 -10.375 0.75 C-6.8646155 -0.35854247 -3.6023033 -0.67766102 0 0 Z " fill="#17D9E8" transform="translate(59,18)"/>
</svg>